<?xml version="1.0" encoding="utf-8"?>
<!-- Generator: Adobe Illustrator 16.0.0, SVG Export Plug-In . SVG Version: 6.00 Build 0)  -->
<!DOCTYPE svg PUBLIC "-//W3C//DTD SVG 1.1//EN" "http://www.w3.org/Graphics/SVG/1.1/DTD/svg11.dtd">
<svg version="1.1" id="Слой_1" xmlns="http://www.w3.org/2000/svg" xmlns:xlink="http://www.w3.org/1999/xlink" x="0px" y="0px"
	 width="74.993px" height="131.993px" viewBox="0 0 74.993 131.993" enable-background="new 0 0 74.993 131.993"
	 xml:space="preserve">
<path fill="none" d="M65.357,0H9.632C4.304,0,0,4.309,0,9.614v112.77c0,5.3,4.304,9.61,9.632,9.61h55.72
	c5.327,0,9.642-4.31,9.642-9.61V9.614C74.998,4.309,70.684,0,65.357,0z M23.741,5.841h27.515c0.695,0,1.255,1.034,1.255,2.321
	c0,1.279-0.56,2.318-1.255,2.318H23.741c-0.695,0-1.25-1.039-1.25-2.318C22.492,6.875,23.047,5.841,23.741,5.841z M37.499,122.504
	c-3.397,0-6.157-2.746-6.157-6.137c0-3.39,2.765-6.127,6.157-6.127c3.387,0,6.152,2.746,6.152,6.127
	C43.651,119.758,40.882,122.504,37.499,122.504z M67.774,101.482H7.224v-85.26h60.551V101.482z"/>
</svg>
