<?xml version="1.0" encoding="utf-8"?>
<!-- Generator: Adobe Illustrator 16.0.0, SVG Export Plug-In . SVG Version: 6.00 Build 0)  -->
<!DOCTYPE svg PUBLIC "-//W3C//DTD SVG 1.1//EN" "http://www.w3.org/Graphics/SVG/1.1/DTD/svg11.dtd">
<svg version="1.1" id="Слой_1" xmlns="http://www.w3.org/2000/svg" xmlns:xlink="http://www.w3.org/1999/xlink" x="0px" y="0px"
	 width="191.922px" height="148.048px" viewBox="0 0 191.922 148.048" enable-background="new 0 0 191.922 148.048"
	 xml:space="preserve">
<path fill="none" d="M0,148.048h75.212V36.969H0V148.048z M39.193,142.479c-2.002,0-3.623-1.612-3.623-3.576
	c0-1.965,1.621-3.565,3.623-3.565c2.003,0,3.627,1.6,3.627,3.565C42.825,140.868,41.196,142.479,39.193,142.479z M10.877,47.673
	h53.467L64.34,129.63H10.877V47.673z"/>
<path fill="none" d="M37.199,10.452h120.53v48.153h10.623V0H26.579v32.22h10.62V10.452z"/>
<path fill="none" d="M80.06,81.573h55.857v10.453H80.06V81.573z"/>
<path fill="none" d="M141.408,62.66v83.651h50.515V62.66H141.408z M167.787,66.124c0.674,0,1.219,0.535,1.219,1.199
	c0,0.661-0.544,1.206-1.219,1.206c-0.675,0-1.223-0.545-1.223-1.206C166.564,66.656,167.112,66.124,167.787,66.124z M160.521,70.135
	h14.531v1.149h-14.531V70.135z M167.31,142.701c-1.605,0-2.915-1.29-2.915-2.874c0-1.577,1.301-2.866,2.915-2.866
	c1.605,0,2.915,1.281,2.915,2.866C170.225,141.411,168.915,142.701,167.31,142.701z M183.817,132.849
	c-13.119,0.074-27.8,0.12-34.304,0.066V75.4l34.304-0.008V132.849z"/>
<path fill="none" d="M95.433,96.305H80.06v6.337h37.441v2.772H80.06v5.728h55.857V96.305H99.476H95.433z"/>
</svg>
